<svg height="224" viewBox="0 0 224 224" width="224" xmlns="http://www.w3.org/2000/svg" xmlns:xlink="http://www.w3.org/1999/xlink"><defs><path id="a" d="m51.277704 0h73.444592c17.830375 0 24.2961 1.85651222 30.814618 5.34265408 6.518519 3.48614185 11.63429 8.60191332 15.120432 15.12043182s5.342654 12.9842433 5.342654 30.8146181v73.444592c0 17.830375-1.856512 24.2961-5.342654 30.814618-3.486142 6.518519-8.601913 11.63429-15.120432 15.120432-6.518518 3.486142-12.984243 5.342654-30.814618 5.342654h-73.444592c-17.8303748 0-24.2960996-1.856512-30.8146181-5.342654s-11.63428997-8.601913-15.12043182-15.120432c-3.48614186-6.518518-5.34265408-12.984243-5.34265408-30.814618v-73.444592c0-17.8303748 1.85651222-24.2960996 5.34265408-30.8146181 3.48614185-6.5185185 8.60191332-11.63428997 15.12043182-15.12043182 6.5185185-3.48614186 12.9842433-5.34265408 30.8146181-5.34265408z"/><filter id="b" height="149.4%" width="149.4%" x="-24.7%" y="-17.3%"><feOffset dx="0" dy="13" in="SourceAlpha" result="shadowOffsetOuter1"/><feGaussianBlur in="shadowOffsetOuter1" result="shadowBlurOuter1" stdDeviation="12"/><feColorMatrix in="shadowBlurOuter1" result="shadowMatrixOuter1" type="matrix" values="0 0 0 0 0   0 0 0 0 0   0 0 0 0 0  0 0 0 0.109183785 0"/><feMorphology in="SourceAlpha" operator="dilate" radius="0.5" result="shadowSpreadOuter2"/><feOffset dx="0" dy="0" in="shadowSpreadOuter2" result="shadowOffsetOuter2"/><feColorMatrix in="shadowOffsetOuter2" result="shadowMatrixOuter2" type="matrix" values="0 0 0 0 0   0 0 0 0 0   0 0 0 0 0  0 0 0 0.0598503059 0"/><feMerge><feMergeNode in="shadowMatrixOuter1"/><feMergeNode in="shadowMatrixOuter2"/></feMerge></filter><linearGradient id="c" x1="50%" x2="50%" y1="0%" y2="100%"><stop offset="0" stop-color="#ff6eb2"/><stop offset="1" stop-color="#ff3529"/></linearGradient></defs><g fill="none" fill-rule="evenodd" transform="translate(24 11)"><use fill="#000" filter="url(#b)" xlink:href="#a"/><use fill="#fff" fill-rule="evenodd" xlink:href="#a"/><path d="m21.4348507.50003765c-11.75738146.20409948-21.12611869 9.87473395-20.93181413 21.61525345 0 12.5549037 6.74787972 25.3934169 17.77760633 36.7513498 8.469902 8.7219368 18.9868302 15.6333591 22.718845 15.6333591 3.7320389 0 14.24925-6.9114487 22.7193622-15.633364 11.030043-11.3579489 17.778114-24.1964527 17.7781825-36.759621.1942592-11.7345651-9.1783262-21.40667379-20.9261484-21.6070335-8.3662098.07197837-15.8837211 5.11357522-19.1102226 12.8158234l-.4611811 1.1009234-.4611645-1.1009303c-3.2255289-7.70025148-10.7399226-12.74126337-19.1034653-12.81576035z" fill="url(#c)" stroke="#000" stroke-opacity=".12836" transform="translate(70 24)"/></g></svg>