<svg xmlns="http://www.w3.org/2000/svg" viewBox="0 0 178 178">

    <circle id="Oval" cx="89" cy="89" r="87" stroke="#04DE71" stroke-width="4" opacity=".05" fill="none"/>
    <circle id="Oval-Copy" cx="89" cy="89" r="78" stroke="#04DE71" stroke-width="4" opacity=".2" fill="none"/>
    <circle id="Oval-Copy-2" cx="89" cy="89" r="69" stroke="#04DE71" stroke-width="4" opacity=".5" fill="none"/>
    <path id="Combined-Shape" d="M89,26 C123.793939,26 152,54.2060608 152,89 C152,123.793939 123.793939,152 89,152 C54.2060608,152 26,123.793939 26,89 C26,54.2060608 54.2060608,26 89,26 Z M113.141892,61.4375 C110.527027,61.4375 108.52027,62.8307692 106.756757,65.4961538 L106.756757,65.4961538 L82.8581081,103.114423 L70.3310811,88.3336538 C68.75,86.5769231 66.9864865,85.6076923 64.7364865,85.6076923 C60.8445946,85.6076923 57.5,88.7576923 57.5,92.6951923 C57.5,94.5730769 58.1081081,96.1480769 59.6283784,97.8442308 L59.6283784,97.8442308 L76.1081081,117.107692 C77.8716216,119.167308 80.1216216,120.5 82.9797297,120.5 C85.6554054,120.5 88.1486486,119.046154 89.7905405,116.744231 L89.7905405,116.744231 L118.858108,73.0076923 C119.891892,71.4326923 120.5,69.7365385 120.5,68.2221154 C120.5,64.2846154 116.972973,61.4375 113.141892,61.4375 Z" fill="#04DE71"/>
</svg>
